<?xml version="1.0" encoding="utf-8"?>
<!-- Generator: Adobe Illustrator 28.3.0, SVG Export Plug-In . SVG Version: 6.00 Build 0)  -->
<svg version="1.1" id="レイヤー_1" xmlns="http://www.w3.org/2000/svg" xmlns:xlink="http://www.w3.org/1999/xlink" x="0px"
	 y="0px" width="240.8px" height="19.9px" viewBox="0 0 240.8 19.9" enable-background="new 0 0 240.8 19.9" xml:space="preserve">
<g>
	<path fill="#FFFFFF" d="M12.7,2.4c0.1,2.4,1.6,3,3.1,3c-0.6,4.8-2.5,11.3-13.2,13.5l-1.5-3.2c8.7-1,10.8-5.5,11.2-10.1H0V2.4H12.7z
		 M18,2.5c0,1.1-1,2.3-2.3,2.3s-2.3-0.9-2.3-2.3s1-2.3,2.3-2.3S18,1.4,18,2.5z M14.9,2.5c0,0.5,0.3,0.9,0.8,0.9s0.9-0.5,0.9-0.9
		s-0.5-0.9-0.9-0.9C15.2,1.6,14.9,1.9,14.9,2.5z"/>
	<path fill="#FFFFFF" d="M25.3,13h-3.4V1.8h3.4V13z M35,9.8c0,7.3-5.5,8.6-11,9.3L22.9,16c5.7-0.5,8.7-1.5,8.7-5.5v-9H35V9.8z"/>
	<path fill="#FFFFFF" d="M46.8,8.1c-1.9-1.4-4.3-2.4-6.4-3.1l1.5-2.7c3,0.9,5.3,1.9,6.6,3C48.5,5,46.8,8.1,46.8,8.1z M40.7,15.2
		c7.9-0.6,12-3.5,14.4-11.8l3,1.5C55,15.6,48.7,17.6,41.7,18.6C41.7,18.9,40.7,15.2,40.7,15.2z"/>
	<path fill="#FFFFFF" d="M68.5,1.1v4.8c3.3,1,7,2.5,9.7,4.2l-1.8,3.4c-2.1-1.5-5.5-3.3-8-4.2V19h-3.5V1.1C65,1.1,68.5,1.1,68.5,1.1z
		"/>
	<path fill="#FFFFFF" d="M98,7v3h-6.4v0.5c-0.1,1.9-0.8,4.3-2.3,5.8c-1.8,1.8-4.5,2.5-6.6,2.9l-1.4-3c1.9-0.3,3.9-0.8,5-1.6
		c1.5-1.1,1.6-3.8,1.6-4.2V9.8h-7.4v-3L98,7L98,7z M93.7,1.9c0.1,0.5,0.3,1.5,0.5,2.4l1-0.1V5H82V1.9H93.7z M94.7,3.5
		c-0.1-1.1-0.3-1.6-0.6-3l1.6-0.1c0.5,1.5,0.6,2.3,0.8,3L94.7,3.5L94.7,3.5z M97.5,3.5c-0.1-1-0.5-2.1-0.8-3.1l1.7-0.3
		c0.5,1,0.5,1.5,0.9,3C99.1,3.3,97.5,3.5,97.5,3.5z"/>
	<path fill="#FFFFFF" d="M112,1.4h2.4c0.1,0.8,0.3,1.6,0.3,2.4h0.6v1.5h3.1v3h-3.1v1.5c0,3.4-0.8,8.2-10.1,9.4l-1.1-3
		c6.9-0.6,7.8-3.4,7.8-6.4V8.2h-4.9V13h-3.1V8.2H101v-3h2.9V1.6h3.1V5h4.9V1.4H112z M115.2,3.3c-0.1-1.5-0.3-2.3-0.6-3l1.5-0.1
		c0.5,1.1,0.5,1.8,0.6,3L115.2,3.3z M117.6,3.3c-0.1-1.1-0.5-2.7-0.6-3l1.6-0.3c0.3,0.9,0.6,2.1,0.6,3L117.6,3.3L117.6,3.3z"/>
	<path fill="#FFFFFF" d="M132.6,18.9h-3.4v-8.3c-2.4,1.4-4.2,2.1-6.7,3l-1.8-2.7c8.6-2.4,13.3-8.1,15-9.8l3,1.9
		c-0.8,0.9-2.7,2.9-5.8,5.3v10.8H132.6z"/>
	<path fill="#FFFFFF" d="M148.1,8.1c-1.9-1.4-4.2-2.4-6.4-3.1l1.5-2.7c3,0.9,5.3,1.9,6.6,3L148.1,8.1L148.1,8.1z M142.1,15.2
		c7.9-0.6,12-3.5,14.4-11.8l3,1.5c-3.1,10.6-9.4,12.7-16.4,13.7L142.1,15.2L142.1,15.2z"/>
	<path fill="#FFFFFF" d="M172.7,3.1V0.6h2.9v2.5h4v2.9h-4v1.9h4.5v2.9h-3.5c1.5,2.5,3.1,3.8,3.9,4.3l-1.1,3.4
		c-1.6-1.1-2.7-2.9-3.5-4.7v5.8h-3v-6.3c-0.9,1.9-2.3,3.8-3.9,5.3l-1.8-2.9c2.4-1.5,3.5-3.1,4.5-4.9h-3.5c0.5,0.6,0.6,0.8,0.9,1
		l-1.8,2.3c-0.9-1.6-0.9-1.9-1.1-2.9v8.3H163V12c-0.8,2.4-1.5,3.4-1.9,4.2l-0.9-4c1.1-1.5,1.8-2.7,2.7-5.5h-2.3V3.9h2.5V0.6h2.9v3.3
		h1.9V5c1-1.9,1.1-3.5,1.4-4.2l2.7,0.3c-0.1,0.5-0.1,1-0.5,1.9C171.7,3.1,172.7,3.1,172.7,3.1z M169.5,7.9l-1.6-1.1h-1.8v0.9
		c0.5,0.9,1,2.1,1.9,3.1V7.9H169.5z M172.7,7.9V5.9h-1.9c-0.5,1-0.9,1.6-1,1.9C169.7,7.9,172.7,7.9,172.7,7.9z"/>
	<path fill="#FFFFFF" d="M181.1,16.1c0.1,0,3.4-0.3,3.8-0.3V11h-3.3V7.9h9.4v3h-3.1v4.7c2.3-0.3,3.1-0.5,3.9-0.6v2.9
		c-2.3,0.5-3.3,0.6-10.5,1.4L181.1,16.1z M198.5,3.3h1.9v3h-5.7c0.1,1.9,0.3,5.5,1.5,8.2c0.1,0.3,0.6,1.4,1,1.4
		c0.6,0,1.6-1.4,2.1-2.7l1.4,3.3c-0.3,0.9-1.4,3.4-3.3,3.4c-0.9,0-1.9-0.6-2.4-1.1c-3-3.1-3.1-8.9-3.3-12.5h-10.3v-3h10.3
		c0-0.3-0.1-2.7-0.1-2.9h3.3v2.9h1.9c-0.6-0.8-0.9-1.4-1.5-1.9l2.5-1c0.3,0.3,0.6,0.5,1.9,2.4C199.6,2.7,198.5,3.3,198.5,3.3z"/>
	<path fill="#FFFFFF" d="M205.7,7.2c-1.6,1-2.4,1.4-3.1,1.5l-1.5-3.1c4.9-1.9,7-3.5,8.2-5.4h3.5c0.9,1,3,3.3,8.1,5.3l-1.6,3
		c-0.6-0.3-1.6-0.8-3-1.5v1.1h-10.8L205.7,7.2L205.7,7.2L205.7,7.2z M217.3,19.9c-0.1-0.5-0.5-0.8-0.8-1.4c-3.4,0.5-10.3,0.8-14,0.9
		l-0.5-3.1c0.1,0,2.7,0,3,0c0.1-0.3,0.9-1.6,1.4-3.4H202V9.8h18.3v3h-4.2c0.9,1,2.3,2.5,4.2,5.7L217.3,19.9L217.3,19.9z M214.1,5.7
		c-1.8-1.4-2.7-2.3-3.1-2.9c-0.5,0.6-1.4,1.5-3.1,2.9H214.1z M215.5,12.7h-5.7c-0.8,1.6-1,2.3-1.6,3.4c2.4,0,4.7,0,6.6-0.3
		c-0.9-1.1-1.4-1.6-1.6-2.1L215.5,12.7L215.5,12.7z"/>
	<path fill="#FFFFFF" d="M227.3,19.8h-3.1V13c-0.9,0.8-1.5,1.1-2.1,1.6l-0.8-3.5c2.3-1.4,4.2-3.5,4.8-4.9h-4.5V3.3h2.5V0.6h3.1v2.9
		h2.1v2.9c-0.3,0.8-0.6,1.5-1.6,3c1,1.1,2.1,1.8,2.9,2.3l-1.5,2.9c-0.5-0.5-1-0.9-1.6-1.9L227.3,19.8L227.3,19.8L227.3,19.8z
		 M233.5,0.6h3.1v5.1h3.9v3.1h-3.9v7.4h4.2v3.2h-12.1v-3.1h4.7V8.8h-3.5V5.5h3.5V0.6H233.5L233.5,0.6z"/>
</g>
</svg>
